<?xml version="1.0" encoding="utf-8" standalone="no"?>
<!DOCTYPE svg PUBLIC "-//W3C//DTD SVG 1.1//EN"
  "http://www.w3.org/Graphics/SVG/1.1/DTD/svg11.dtd">
<svg xmlns:xlink="http://www.w3.org/1999/xlink" width="864pt" height="360pt" viewBox="0 0 864 360" xmlns="http://www.w3.org/2000/svg" version="1.1">
 <metadata>
  <rdf:RDF xmlns:dc="http://purl.org/dc/elements/1.1/" xmlns:cc="http://creativecommons.org/ns#" xmlns:rdf="http://www.w3.org/1999/02/22-rdf-syntax-ns#">
   <cc:Work>
    <dc:type rdf:resource="http://purl.org/dc/dcmitype/StillImage"/>
    <dc:date>2025-12-09T18:57:41.470735</dc:date>
    <dc:format>image/svg+xml</dc:format>
    <dc:creator>
     <cc:Agent>
      <dc:title>Matplotlib v3.6.3, https://matplotlib.org/</dc:title>
     </cc:Agent>
    </dc:creator>
   </cc:Work>
  </rdf:RDF>
 </metadata>
 <defs>
  <style type="text/css">*{stroke-linejoin: round; stroke-linecap: butt}</style>
 </defs>
 <g id="figure_1">
  <g id="patch_1">
   <path d="M 0 360 
L 864 360 
L 864 0 
L 0 0 
z
" style="fill: #ffffff"/>
  </g>
  <g id="axes_1">
   <g id="patch_2">
    <path d="M 65.45 303.64 
L 853.2 303.64 
L 853.2 10.8 
L 65.45 10.8 
z
" style="fill: #ffffff"/>
   </g>
   <g id="matplotlib.axis_1">
    <g id="xtick_1">
     <g id="line2d_1">
      <defs>
       <path id="m725806e744" d="M 0 0 
L 0 3.5 
" style="stroke: #000000; stroke-width: 0.8"/>
      </defs>
      <g>
       <use xlink:href="#m725806e744" x="786.368007" y="303.64" style="stroke: #000000; stroke-width: 0.8"/>
      </g>
     </g>
     <g id="text_1">
      <!-- 1100 -->
      <g transform="translate(773.643007 318.238438) scale(0.1 -0.1)">
       <defs>
        <path id="DejaVuSans-31" d="M 794 531 
L 1825 531 
L 1825 4091 
L 703 3866 
L 703 4441 
L 1819 4666 
L 2450 4666 
L 2450 531 
L 3481 531 
L 3481 0 
L 794 0 
L 794 531 
z
" transform="scale(0.015625)"/>
        <path id="DejaVuSans-30" d="M 2034 4250 
Q 1547 4250 1301 3770 
Q 1056 3291 1056 2328 
Q 1056 1369 1301 889 
Q 1547 409 2034 409 
Q 2525 409 2770 889 
Q 3016 1369 3016 2328 
Q 3016 3291 2770 3770 
Q 2525 4250 2034 4250 
z
M 2034 4750 
Q 2819 4750 3233 4129 
Q 3647 3509 3647 2328 
Q 3647 1150 3233 529 
Q 2819 -91 2034 -91 
Q 1250 -91 836 529 
Q 422 1150 422 2328 
Q 422 3509 836 4129 
Q 1250 4750 2034 4750 
z
" transform="scale(0.015625)"/>
       </defs>
       <use xlink:href="#DejaVuSans-31"/>
       <use xlink:href="#DejaVuSans-31" x="63.623047"/>
       <use xlink:href="#DejaVuSans-30" x="127.246094"/>
       <use xlink:href="#DejaVuSans-30" x="190.869141"/>
      </g>
     </g>
    </g>
    <g id="xtick_2">
     <g id="line2d_2">
      <g>
       <use xlink:href="#m725806e744" x="675.440015" y="303.64" style="stroke: #000000; stroke-width: 0.8"/>
      </g>
     </g>
     <g id="text_2">
      <!-- 1200 -->
      <g transform="translate(662.715015 318.238438) scale(0.1 -0.1)">
       <defs>
        <path id="DejaVuSans-32" d="M 1228 531 
L 3431 531 
L 3431 0 
L 469 0 
L 469 531 
Q 828 903 1448 1529 
Q 2069 2156 2228 2338 
Q 2531 2678 2651 2914 
Q 2772 3150 2772 3378 
Q 2772 3750 2511 3984 
Q 2250 4219 1831 4219 
Q 1534 4219 1204 4116 
Q 875 4013 500 3803 
L 500 4441 
Q 881 4594 1212 4672 
Q 1544 4750 1819 4750 
Q 2544 4750 2975 4387 
Q 3406 4025 3406 3419 
Q 3406 3131 3298 2873 
Q 3191 2616 2906 2266 
Q 2828 2175 2409 1742 
Q 1991 1309 1228 531 
z
" transform="scale(0.015625)"/>
       </defs>
       <use xlink:href="#DejaVuSans-31"/>
       <use xlink:href="#DejaVuSans-32" x="63.623047"/>
       <use xlink:href="#DejaVuSans-30" x="127.246094"/>
       <use xlink:href="#DejaVuSans-30" x="190.869141"/>
      </g>
     </g>
    </g>
    <g id="xtick_3">
     <g id="line2d_3">
      <g>
       <use xlink:href="#m725806e744" x="564.512022" y="303.64" style="stroke: #000000; stroke-width: 0.8"/>
      </g>
     </g>
     <g id="text_3">
      <!-- 1300 -->
      <g transform="translate(551.787022 318.238438) scale(0.1 -0.1)">
       <defs>
        <path id="DejaVuSans-33" d="M 2597 2516 
Q 3050 2419 3304 2112 
Q 3559 1806 3559 1356 
Q 3559 666 3084 287 
Q 2609 -91 1734 -91 
Q 1441 -91 1130 -33 
Q 819 25 488 141 
L 488 750 
Q 750 597 1062 519 
Q 1375 441 1716 441 
Q 2309 441 2620 675 
Q 2931 909 2931 1356 
Q 2931 1769 2642 2001 
Q 2353 2234 1838 2234 
L 1294 2234 
L 1294 2753 
L 1863 2753 
Q 2328 2753 2575 2939 
Q 2822 3125 2822 3475 
Q 2822 3834 2567 4026 
Q 2313 4219 1838 4219 
Q 1578 4219 1281 4162 
Q 984 4106 628 3988 
L 628 4550 
Q 988 4650 1302 4700 
Q 1616 4750 1894 4750 
Q 2613 4750 3031 4423 
Q 3450 4097 3450 3541 
Q 3450 3153 3228 2886 
Q 3006 2619 2597 2516 
z
" transform="scale(0.015625)"/>
       </defs>
       <use xlink:href="#DejaVuSans-31"/>
       <use xlink:href="#DejaVuSans-33" x="63.623047"/>
       <use xlink:href="#DejaVuSans-30" x="127.246094"/>
       <use xlink:href="#DejaVuSans-30" x="190.869141"/>
      </g>
     </g>
    </g>
    <g id="xtick_4">
     <g id="line2d_4">
      <g>
       <use xlink:href="#m725806e744" x="453.584029" y="303.64" style="stroke: #000000; stroke-width: 0.8"/>
      </g>
     </g>
     <g id="text_4">
      <!-- 1400 -->
      <g transform="translate(440.859029 318.238438) scale(0.1 -0.1)">
       <defs>
        <path id="DejaVuSans-34" d="M 2419 4116 
L 825 1625 
L 2419 1625 
L 2419 4116 
z
M 2253 4666 
L 3047 4666 
L 3047 1625 
L 3713 1625 
L 3713 1100 
L 3047 1100 
L 3047 0 
L 2419 0 
L 2419 1100 
L 313 1100 
L 313 1709 
L 2253 4666 
z
" transform="scale(0.015625)"/>
       </defs>
       <use xlink:href="#DejaVuSans-31"/>
       <use xlink:href="#DejaVuSans-34" x="63.623047"/>
       <use xlink:href="#DejaVuSans-30" x="127.246094"/>
       <use xlink:href="#DejaVuSans-30" x="190.869141"/>
      </g>
     </g>
    </g>
    <g id="xtick_5">
     <g id="line2d_5">
      <g>
       <use xlink:href="#m725806e744" x="342.656036" y="303.64" style="stroke: #000000; stroke-width: 0.8"/>
      </g>
     </g>
     <g id="text_5">
      <!-- 1500 -->
      <g transform="translate(329.931036 318.238438) scale(0.1 -0.1)">
       <defs>
        <path id="DejaVuSans-35" d="M 691 4666 
L 3169 4666 
L 3169 4134 
L 1269 4134 
L 1269 2991 
Q 1406 3038 1543 3061 
Q 1681 3084 1819 3084 
Q 2600 3084 3056 2656 
Q 3513 2228 3513 1497 
Q 3513 744 3044 326 
Q 2575 -91 1722 -91 
Q 1428 -91 1123 -41 
Q 819 9 494 109 
L 494 744 
Q 775 591 1075 516 
Q 1375 441 1709 441 
Q 2250 441 2565 725 
Q 2881 1009 2881 1497 
Q 2881 1984 2565 2268 
Q 2250 2553 1709 2553 
Q 1456 2553 1204 2497 
Q 953 2441 691 2322 
L 691 4666 
z
" transform="scale(0.015625)"/>
       </defs>
       <use xlink:href="#DejaVuSans-31"/>
       <use xlink:href="#DejaVuSans-35" x="63.623047"/>
       <use xlink:href="#DejaVuSans-30" x="127.246094"/>
       <use xlink:href="#DejaVuSans-30" x="190.869141"/>
      </g>
     </g>
    </g>
    <g id="xtick_6">
     <g id="line2d_6">
      <g>
       <use xlink:href="#m725806e744" x="231.728043" y="303.64" style="stroke: #000000; stroke-width: 0.8"/>
      </g>
     </g>
     <g id="text_6">
      <!-- 1600 -->
      <g transform="translate(219.003043 318.238438) scale(0.1 -0.1)">
       <defs>
        <path id="DejaVuSans-36" d="M 2113 2584 
Q 1688 2584 1439 2293 
Q 1191 2003 1191 1497 
Q 1191 994 1439 701 
Q 1688 409 2113 409 
Q 2538 409 2786 701 
Q 3034 994 3034 1497 
Q 3034 2003 2786 2293 
Q 2538 2584 2113 2584 
z
M 3366 4563 
L 3366 3988 
Q 3128 4100 2886 4159 
Q 2644 4219 2406 4219 
Q 1781 4219 1451 3797 
Q 1122 3375 1075 2522 
Q 1259 2794 1537 2939 
Q 1816 3084 2150 3084 
Q 2853 3084 3261 2657 
Q 3669 2231 3669 1497 
Q 3669 778 3244 343 
Q 2819 -91 2113 -91 
Q 1303 -91 875 529 
Q 447 1150 447 2328 
Q 447 3434 972 4092 
Q 1497 4750 2381 4750 
Q 2619 4750 2861 4703 
Q 3103 4656 3366 4563 
z
" transform="scale(0.015625)"/>
       </defs>
       <use xlink:href="#DejaVuSans-31"/>
       <use xlink:href="#DejaVuSans-36" x="63.623047"/>
       <use xlink:href="#DejaVuSans-30" x="127.246094"/>
       <use xlink:href="#DejaVuSans-30" x="190.869141"/>
      </g>
     </g>
    </g>
    <g id="xtick_7">
     <g id="line2d_7">
      <g>
       <use xlink:href="#m725806e744" x="120.80005" y="303.64" style="stroke: #000000; stroke-width: 0.8"/>
      </g>
     </g>
     <g id="text_7">
      <!-- 1700 -->
      <g transform="translate(108.07505 318.238438) scale(0.1 -0.1)">
       <defs>
        <path id="DejaVuSans-37" d="M 525 4666 
L 3525 4666 
L 3525 4397 
L 1831 0 
L 1172 0 
L 2766 4134 
L 525 4134 
L 525 4666 
z
" transform="scale(0.015625)"/>
       </defs>
       <use xlink:href="#DejaVuSans-31"/>
       <use xlink:href="#DejaVuSans-37" x="63.623047"/>
       <use xlink:href="#DejaVuSans-30" x="127.246094"/>
       <use xlink:href="#DejaVuSans-30" x="190.869141"/>
      </g>
     </g>
    </g>
    <g id="text_8">
     <!-- Distance from river mouth [m] -->
     <g transform="translate(260.719531 344.074063) scale(0.26 -0.26)">
      <defs>
       <path id="DejaVuSans-44" d="M 1259 4147 
L 1259 519 
L 2022 519 
Q 2988 519 3436 956 
Q 3884 1394 3884 2338 
Q 3884 3275 3436 3711 
Q 2988 4147 2022 4147 
L 1259 4147 
z
M 628 4666 
L 1925 4666 
Q 3281 4666 3915 4102 
Q 4550 3538 4550 2338 
Q 4550 1131 3912 565 
Q 3275 0 1925 0 
L 628 0 
L 628 4666 
z
" transform="scale(0.015625)"/>
       <path id="DejaVuSans-69" d="M 603 3500 
L 1178 3500 
L 1178 0 
L 603 0 
L 603 3500 
z
M 603 4863 
L 1178 4863 
L 1178 4134 
L 603 4134 
L 603 4863 
z
" transform="scale(0.015625)"/>
       <path id="DejaVuSans-73" d="M 2834 3397 
L 2834 2853 
Q 2591 2978 2328 3040 
Q 2066 3103 1784 3103 
Q 1356 3103 1142 2972 
Q 928 2841 928 2578 
Q 928 2378 1081 2264 
Q 1234 2150 1697 2047 
L 1894 2003 
Q 2506 1872 2764 1633 
Q 3022 1394 3022 966 
Q 3022 478 2636 193 
Q 2250 -91 1575 -91 
Q 1294 -91 989 -36 
Q 684 19 347 128 
L 347 722 
Q 666 556 975 473 
Q 1284 391 1588 391 
Q 1994 391 2212 530 
Q 2431 669 2431 922 
Q 2431 1156 2273 1281 
Q 2116 1406 1581 1522 
L 1381 1569 
Q 847 1681 609 1914 
Q 372 2147 372 2553 
Q 372 3047 722 3315 
Q 1072 3584 1716 3584 
Q 2034 3584 2315 3537 
Q 2597 3491 2834 3397 
z
" transform="scale(0.015625)"/>
       <path id="DejaVuSans-74" d="M 1172 4494 
L 1172 3500 
L 2356 3500 
L 2356 3053 
L 1172 3053 
L 1172 1153 
Q 1172 725 1289 603 
Q 1406 481 1766 481 
L 2356 481 
L 2356 0 
L 1766 0 
Q 1100 0 847 248 
Q 594 497 594 1153 
L 594 3053 
L 172 3053 
L 172 3500 
L 594 3500 
L 594 4494 
L 1172 4494 
z
" transform="scale(0.015625)"/>
       <path id="DejaVuSans-61" d="M 2194 1759 
Q 1497 1759 1228 1600 
Q 959 1441 959 1056 
Q 959 750 1161 570 
Q 1363 391 1709 391 
Q 2188 391 2477 730 
Q 2766 1069 2766 1631 
L 2766 1759 
L 2194 1759 
z
M 3341 1997 
L 3341 0 
L 2766 0 
L 2766 531 
Q 2569 213 2275 61 
Q 1981 -91 1556 -91 
Q 1019 -91 701 211 
Q 384 513 384 1019 
Q 384 1609 779 1909 
Q 1175 2209 1959 2209 
L 2766 2209 
L 2766 2266 
Q 2766 2663 2505 2880 
Q 2244 3097 1772 3097 
Q 1472 3097 1187 3025 
Q 903 2953 641 2809 
L 641 3341 
Q 956 3463 1253 3523 
Q 1550 3584 1831 3584 
Q 2591 3584 2966 3190 
Q 3341 2797 3341 1997 
z
" transform="scale(0.015625)"/>
       <path id="DejaVuSans-6e" d="M 3513 2113 
L 3513 0 
L 2938 0 
L 2938 2094 
Q 2938 2591 2744 2837 
Q 2550 3084 2163 3084 
Q 1697 3084 1428 2787 
Q 1159 2491 1159 1978 
L 1159 0 
L 581 0 
L 581 3500 
L 1159 3500 
L 1159 2956 
Q 1366 3272 1645 3428 
Q 1925 3584 2291 3584 
Q 2894 3584 3203 3211 
Q 3513 2838 3513 2113 
z
" transform="scale(0.015625)"/>
       <path id="DejaVuSans-63" d="M 3122 3366 
L 3122 2828 
Q 2878 2963 2633 3030 
Q 2388 3097 2138 3097 
Q 1578 3097 1268 2742 
Q 959 2388 959 1747 
Q 959 1106 1268 751 
Q 1578 397 2138 397 
Q 2388 397 2633 464 
Q 2878 531 3122 666 
L 3122 134 
Q 2881 22 2623 -34 
Q 2366 -91 2075 -91 
Q 1284 -91 818 406 
Q 353 903 353 1747 
Q 353 2603 823 3093 
Q 1294 3584 2113 3584 
Q 2378 3584 2631 3529 
Q 2884 3475 3122 3366 
z
" transform="scale(0.015625)"/>
       <path id="DejaVuSans-65" d="M 3597 1894 
L 3597 1613 
L 953 1613 
Q 991 1019 1311 708 
Q 1631 397 2203 397 
Q 2534 397 2845 478 
Q 3156 559 3463 722 
L 3463 178 
Q 3153 47 2828 -22 
Q 2503 -91 2169 -91 
Q 1331 -91 842 396 
Q 353 884 353 1716 
Q 353 2575 817 3079 
Q 1281 3584 2069 3584 
Q 2775 3584 3186 3129 
Q 3597 2675 3597 1894 
z
M 3022 2063 
Q 3016 2534 2758 2815 
Q 2500 3097 2075 3097 
Q 1594 3097 1305 2825 
Q 1016 2553 972 2059 
L 3022 2063 
z
" transform="scale(0.015625)"/>
       <path id="DejaVuSans-20" transform="scale(0.015625)"/>
       <path id="DejaVuSans-66" d="M 2375 4863 
L 2375 4384 
L 1825 4384 
Q 1516 4384 1395 4259 
Q 1275 4134 1275 3809 
L 1275 3500 
L 2222 3500 
L 2222 3053 
L 1275 3053 
L 1275 0 
L 697 0 
L 697 3053 
L 147 3053 
L 147 3500 
L 697 3500 
L 697 3744 
Q 697 4328 969 4595 
Q 1241 4863 1831 4863 
L 2375 4863 
z
" transform="scale(0.015625)"/>
       <path id="DejaVuSans-72" d="M 2631 2963 
Q 2534 3019 2420 3045 
Q 2306 3072 2169 3072 
Q 1681 3072 1420 2755 
Q 1159 2438 1159 1844 
L 1159 0 
L 581 0 
L 581 3500 
L 1159 3500 
L 1159 2956 
Q 1341 3275 1631 3429 
Q 1922 3584 2338 3584 
Q 2397 3584 2469 3576 
Q 2541 3569 2628 3553 
L 2631 2963 
z
" transform="scale(0.015625)"/>
       <path id="DejaVuSans-6f" d="M 1959 3097 
Q 1497 3097 1228 2736 
Q 959 2375 959 1747 
Q 959 1119 1226 758 
Q 1494 397 1959 397 
Q 2419 397 2687 759 
Q 2956 1122 2956 1747 
Q 2956 2369 2687 2733 
Q 2419 3097 1959 3097 
z
M 1959 3584 
Q 2709 3584 3137 3096 
Q 3566 2609 3566 1747 
Q 3566 888 3137 398 
Q 2709 -91 1959 -91 
Q 1206 -91 779 398 
Q 353 888 353 1747 
Q 353 2609 779 3096 
Q 1206 3584 1959 3584 
z
" transform="scale(0.015625)"/>
       <path id="DejaVuSans-6d" d="M 3328 2828 
Q 3544 3216 3844 3400 
Q 4144 3584 4550 3584 
Q 5097 3584 5394 3201 
Q 5691 2819 5691 2113 
L 5691 0 
L 5113 0 
L 5113 2094 
Q 5113 2597 4934 2840 
Q 4756 3084 4391 3084 
Q 3944 3084 3684 2787 
Q 3425 2491 3425 1978 
L 3425 0 
L 2847 0 
L 2847 2094 
Q 2847 2600 2669 2842 
Q 2491 3084 2119 3084 
Q 1678 3084 1418 2786 
Q 1159 2488 1159 1978 
L 1159 0 
L 581 0 
L 581 3500 
L 1159 3500 
L 1159 2956 
Q 1356 3278 1631 3431 
Q 1906 3584 2284 3584 
Q 2666 3584 2933 3390 
Q 3200 3197 3328 2828 
z
" transform="scale(0.015625)"/>
       <path id="DejaVuSans-76" d="M 191 3500 
L 800 3500 
L 1894 563 
L 2988 3500 
L 3597 3500 
L 2284 0 
L 1503 0 
L 191 3500 
z
" transform="scale(0.015625)"/>
       <path id="DejaVuSans-75" d="M 544 1381 
L 544 3500 
L 1119 3500 
L 1119 1403 
Q 1119 906 1312 657 
Q 1506 409 1894 409 
Q 2359 409 2629 706 
Q 2900 1003 2900 1516 
L 2900 3500 
L 3475 3500 
L 3475 0 
L 2900 0 
L 2900 538 
Q 2691 219 2414 64 
Q 2138 -91 1772 -91 
Q 1169 -91 856 284 
Q 544 659 544 1381 
z
M 1991 3584 
L 1991 3584 
z
" transform="scale(0.015625)"/>
       <path id="DejaVuSans-68" d="M 3513 2113 
L 3513 0 
L 2938 0 
L 2938 2094 
Q 2938 2591 2744 2837 
Q 2550 3084 2163 3084 
Q 1697 3084 1428 2787 
Q 1159 2491 1159 1978 
L 1159 0 
L 581 0 
L 581 4863 
L 1159 4863 
L 1159 2956 
Q 1366 3272 1645 3428 
Q 1925 3584 2291 3584 
Q 2894 3584 3203 3211 
Q 3513 2838 3513 2113 
z
" transform="scale(0.015625)"/>
       <path id="DejaVuSans-5b" d="M 550 4863 
L 1875 4863 
L 1875 4416 
L 1125 4416 
L 1125 -397 
L 1875 -397 
L 1875 -844 
L 550 -844 
L 550 4863 
z
" transform="scale(0.015625)"/>
       <path id="DejaVuSans-5d" d="M 1947 4863 
L 1947 -844 
L 622 -844 
L 622 -397 
L 1369 -397 
L 1369 4416 
L 622 4416 
L 622 4863 
L 1947 4863 
z
" transform="scale(0.015625)"/>
      </defs>
      <use xlink:href="#DejaVuSans-44"/>
      <use xlink:href="#DejaVuSans-69" x="77.001953"/>
      <use xlink:href="#DejaVuSans-73" x="104.785156"/>
      <use xlink:href="#DejaVuSans-74" x="156.884766"/>
      <use xlink:href="#DejaVuSans-61" x="196.09375"/>
      <use xlink:href="#DejaVuSans-6e" x="257.373047"/>
      <use xlink:href="#DejaVuSans-63" x="320.751953"/>
      <use xlink:href="#DejaVuSans-65" x="375.732422"/>
      <use xlink:href="#DejaVuSans-20" x="437.255859"/>
      <use xlink:href="#DejaVuSans-66" x="469.042969"/>
      <use xlink:href="#DejaVuSans-72" x="504.248047"/>
      <use xlink:href="#DejaVuSans-6f" x="543.111328"/>
      <use xlink:href="#DejaVuSans-6d" x="604.292969"/>
      <use xlink:href="#DejaVuSans-20" x="701.705078"/>
      <use xlink:href="#DejaVuSans-72" x="733.492188"/>
      <use xlink:href="#DejaVuSans-69" x="774.605469"/>
      <use xlink:href="#DejaVuSans-76" x="802.388672"/>
      <use xlink:href="#DejaVuSans-65" x="861.568359"/>
      <use xlink:href="#DejaVuSans-72" x="923.091797"/>
      <use xlink:href="#DejaVuSans-20" x="964.205078"/>
      <use xlink:href="#DejaVuSans-6d" x="995.992188"/>
      <use xlink:href="#DejaVuSans-6f" x="1093.404297"/>
      <use xlink:href="#DejaVuSans-75" x="1154.585938"/>
      <use xlink:href="#DejaVuSans-74" x="1217.964844"/>
      <use xlink:href="#DejaVuSans-68" x="1257.173828"/>
      <use xlink:href="#DejaVuSans-20" x="1320.552734"/>
      <use xlink:href="#DejaVuSans-5b" x="1352.339844"/>
      <use xlink:href="#DejaVuSans-6d" x="1391.353516"/>
      <use xlink:href="#DejaVuSans-5d" x="1488.765625"/>
     </g>
    </g>
   </g>
   <g id="matplotlib.axis_2">
    <g id="ytick_1">
     <g id="line2d_8">
      <defs>
       <path id="m67fedbc539" d="M 0 0 
L -3.5 0 
" style="stroke: #000000; stroke-width: 0.8"/>
      </defs>
      <g>
       <use xlink:href="#m67fedbc539" x="65.45" y="270.236445" style="stroke: #000000; stroke-width: 0.8"/>
      </g>
     </g>
     <g id="text_9">
      <!-- 200 -->
      <g transform="translate(39.3625 274.035664) scale(0.1 -0.1)">
       <use xlink:href="#DejaVuSans-32"/>
       <use xlink:href="#DejaVuSans-30" x="63.623047"/>
       <use xlink:href="#DejaVuSans-30" x="127.246094"/>
      </g>
     </g>
    </g>
    <g id="ytick_2">
     <g id="line2d_9">
      <g>
       <use xlink:href="#m67fedbc539" x="65.45" y="212.795829" style="stroke: #000000; stroke-width: 0.8"/>
      </g>
     </g>
     <g id="text_10">
      <!-- 210 -->
      <g transform="translate(39.3625 216.595048) scale(0.1 -0.1)">
       <use xlink:href="#DejaVuSans-32"/>
       <use xlink:href="#DejaVuSans-31" x="63.623047"/>
       <use xlink:href="#DejaVuSans-30" x="127.246094"/>
      </g>
     </g>
    </g>
    <g id="ytick_3">
     <g id="line2d_10">
      <g>
       <use xlink:href="#m67fedbc539" x="65.45" y="155.355213" style="stroke: #000000; stroke-width: 0.8"/>
      </g>
     </g>
     <g id="text_11">
      <!-- 220 -->
      <g transform="translate(39.3625 159.154432) scale(0.1 -0.1)">
       <use xlink:href="#DejaVuSans-32"/>
       <use xlink:href="#DejaVuSans-32" x="63.623047"/>
       <use xlink:href="#DejaVuSans-30" x="127.246094"/>
      </g>
     </g>
    </g>
    <g id="ytick_4">
     <g id="line2d_11">
      <g>
       <use xlink:href="#m67fedbc539" x="65.45" y="97.914598" style="stroke: #000000; stroke-width: 0.8"/>
      </g>
     </g>
     <g id="text_12">
      <!-- 230 -->
      <g transform="translate(39.3625 101.713816) scale(0.1 -0.1)">
       <use xlink:href="#DejaVuSans-32"/>
       <use xlink:href="#DejaVuSans-33" x="63.623047"/>
       <use xlink:href="#DejaVuSans-30" x="127.246094"/>
      </g>
     </g>
    </g>
    <g id="ytick_5">
     <g id="line2d_12">
      <g>
       <use xlink:href="#m67fedbc539" x="65.45" y="40.473982" style="stroke: #000000; stroke-width: 0.8"/>
      </g>
     </g>
     <g id="text_13">
      <!-- 240 -->
      <g transform="translate(39.3625 44.273201) scale(0.1 -0.1)">
       <use xlink:href="#DejaVuSans-32"/>
       <use xlink:href="#DejaVuSans-34" x="63.623047"/>
       <use xlink:href="#DejaVuSans-30" x="127.246094"/>
      </g>
     </g>
    </g>
    <g id="text_14">
     <!-- Elevation [m] -->
     <g transform="translate(29.955313 244.545469) rotate(-90) scale(0.26 -0.26)">
      <defs>
       <path id="DejaVuSans-45" d="M 628 4666 
L 3578 4666 
L 3578 4134 
L 1259 4134 
L 1259 2753 
L 3481 2753 
L 3481 2222 
L 1259 2222 
L 1259 531 
L 3634 531 
L 3634 0 
L 628 0 
L 628 4666 
z
" transform="scale(0.015625)"/>
       <path id="DejaVuSans-6c" d="M 603 4863 
L 1178 4863 
L 1178 0 
L 603 0 
L 603 4863 
z
" transform="scale(0.015625)"/>
      </defs>
      <use xlink:href="#DejaVuSans-45"/>
      <use xlink:href="#DejaVuSans-6c" x="63.183594"/>
      <use xlink:href="#DejaVuSans-65" x="90.966797"/>
      <use xlink:href="#DejaVuSans-76" x="152.490234"/>
      <use xlink:href="#DejaVuSans-61" x="211.669922"/>
      <use xlink:href="#DejaVuSans-74" x="272.949219"/>
      <use xlink:href="#DejaVuSans-69" x="312.158203"/>
      <use xlink:href="#DejaVuSans-6f" x="339.941406"/>
      <use xlink:href="#DejaVuSans-6e" x="401.123047"/>
      <use xlink:href="#DejaVuSans-20" x="464.501953"/>
      <use xlink:href="#DejaVuSans-5b" x="496.289062"/>
      <use xlink:href="#DejaVuSans-6d" x="535.302734"/>
      <use xlink:href="#DejaVuSans-5d" x="632.714844"/>
     </g>
    </g>
   </g>
   <g id="line2d_13">
    <path d="M 420.300717 280.290569 
L 422.65372 281.392121 
L 425.006722 284.677234 
L 427.359724 284.491334 
L 429.712727 283.972374 
L 432.065729 284.394659 
L 433.729457 285.171916 
L 436.082459 285.915167 
L 439.409915 286.570243 
L 441.762918 287.280275 
L 447.443376 288.041493 
L 450.770832 288.840049 
L 452.434559 288.876773 
L 456.45129 289.400992 
L 458.804292 289.29564 
L 461.157294 289.315448 
L 463.510297 289.688388 
L 467.527027 289.852026 
L 469.880029 290.032054 
L 475.560488 289.802768 
L 477.91349 290.001377 
L 480.266492 289.613011 
L 481.93022 289.977537 
L 484.283222 289.495652 
L 486.636225 289.351559 
L 490.652955 289.38171 
L 494.669877 289.513795 
L 497.02288 289.627824 
L 499.375882 289.936781 
L 501.039802 289.674102 
L 507.409534 290.038101 
L 509.073262 289.91706 
L 514.753721 290.105678 
L 518.770643 290.255204 
L 521.123645 290.151693 
L 523.476647 290.247316 
L 525.140375 289.926263 
L 527.493378 289.709862 
L 529.84638 289.80119 
L 531.510108 289.563052 
L 533.173836 289.62388 
L 535.526838 289.89471 
L 537.190566 289.732563 
L 545.913301 289.959832 
L 553.257487 289.748076 
L 554.921215 289.957992 
L 562.954676 289.984111 
L 570.98852 289.89436 
L 573.341522 290.329091 
L 577.358253 289.762275 
L 579.021981 289.715296 
L 583.038711 289.953785 
L 585.391713 289.660604 
L 587.055441 289.724587 
L 591.761446 289.536408 
L 598.13137 289.988405 
L 599.795098 290.032492 
L 603.811829 289.974382 
L 607.828559 289.932223 
L 610.181561 289.765781 
L 614.198291 289.943267 
L 621.543053 289.725726 
L 632.904546 289.776211 
L 639.963553 289.865787 
L 651.039482 289.804258 
L 655.745487 289.737296 
L 657.409215 290.087359 
L 659.762217 290.210416 
L 661.425945 289.760434 
L 663.089673 289.591625 
L 666.417129 289.816616 
L 680.820322 289.861404 
L 690.232331 289.668843 
L 694.938336 289.634222 
L 710.602697 289.835636 
L 712.955699 289.639744 
L 724.316616 289.599076 
L 726.669618 289.644214 
L 731.375623 289.51432 
L 733.728625 289.832919 
L 735.392353 289.754562 
L 737.056081 289.832744 
L 748.417573 289.788569 
L 765.173961 290.056507 
L 770.854803 290.227069 
L 772.518723 289.796633 
L 774.182643 289.865524 
L 778.199565 289.643337 
L 780.552567 288.272181 
L 782.216487 286.622306 
L 784.569489 286.55026 
L 788.586412 287.913265 
L 790.250332 288.159992 
L 792.603334 288.23309 
L 794.956336 287.878644 
L 797.309339 287.818956 
L 798.973066 287.501585 
L 800.636794 288.644946 
L 802.989797 289.178806 
L 804.653717 289.400642 
L 807.006719 289.264262 
L 815.040179 289.406076 
L 815.040179 289.406076 
" clip-path="url(#p3d0140e93a)" style="fill: none; stroke: #000000; stroke-width: 3; stroke-linecap: square"/>
   </g>
   <g id="line2d_14">
    <defs>
     <path id="meaac1a574a" d="M 0 3 
C 0.795609 3 1.55874 2.683901 2.12132 2.12132 
C 2.683901 1.55874 3 0.795609 3 0 
C 3 -0.795609 2.683901 -1.55874 2.12132 -2.12132 
C 1.55874 -2.683901 0.795609 -3 0 -3 
C -0.795609 -3 -1.55874 -2.683901 -2.12132 -2.12132 
C -2.683901 -1.55874 -3 -0.795609 -3 0 
C -3 0.795609 -2.683901 1.55874 -2.12132 2.12132 
C -1.55874 2.683901 -0.795609 3 0 3 
z
" style="stroke: #000000"/>
    </defs>
    <g clip-path="url(#p3d0140e93a)">
     <use xlink:href="#meaac1a574a" x="417.947715" y="279.733306" style="stroke: #000000"/>
    </g>
   </g>
   <g id="line2d_15">
    <g clip-path="url(#p3d0140e93a)">
     <use xlink:href="#meaac1a574a" x="817.393182" y="289.623529" style="stroke: #000000"/>
    </g>
   </g>
   <g id="line2d_16">
    <g clip-path="url(#p3d0140e93a)">
     <use xlink:href="#meaac1a574a" x="817.393182" y="289.623529" style="stroke: #000000"/>
    </g>
   </g>
   <g id="line2d_17">
    <path d="M 223.593708 105.27742 
L 225.257628 108.957297 
L 226.921548 112.337945 
L 229.27455 117.981738 
L 230.93847 122.125621 
L 232.60239 125.730998 
L 234.26631 127.993178 
L 235.93023 130.861177 
L 237.59415 133.613043 
L 239.947152 139.111955 
L 241.611072 142.684814 
L 243.274992 145.351487 
L 245.627994 150.766871 
L 247.291914 154.15348 
L 248.955834 157.064426 
L 251.308836 162.508558 
L 252.972756 166.240848 
L 255.325758 170.945937 
L 257.678761 175.237856 
L 260.031763 179.926993 
L 261.695683 184.590976 
L 263.359603 188.101606 
L 265.023523 191.703827 
L 267.376525 196.767569 
L 269.729527 200.155668 
L 271.393447 202.58061 
L 273.057367 204.69151 
L 274.721287 206.328063 
L 277.074289 209.378719 
L 279.427292 213.110834 
L 281.780294 218.19789 
L 284.133296 220.867368 
L 286.486299 225.224234 
L 288.839301 228.358155 
L 291.192303 230.466339 
L 293.545306 232.918363 
L 295.209226 233.932707 
L 296.873146 234.95748 
L 299.226148 236.556783 
L 301.57915 239.574571 
L 303.24307 241.166511 
L 305.596072 242.945491 
L 307.259992 243.846594 
L 308.923912 244.806071 
L 310.587832 247.92369 
" clip-path="url(#p3d0140e93a)" style="fill: none; stroke: #000000; stroke-width: 3; stroke-linecap: square"/>
   </g>
   <g id="line2d_18">
    <g clip-path="url(#p3d0140e93a)">
     <use xlink:href="#meaac1a574a" x="221.929788" y="101.822095" style="stroke: #000000"/>
    </g>
   </g>
   <g id="line2d_19">
    <g clip-path="url(#p3d0140e93a)">
     <use xlink:href="#meaac1a574a" x="817.393182" y="289.623529" style="stroke: #000000"/>
    </g>
   </g>
   <g id="line2d_20">
    <path d="M 307.260376 248.126769 
L 309.613379 248.534417 
L 311.277107 248.710676 
" clip-path="url(#p3d0140e93a)" style="fill: none; stroke: #000000; stroke-width: 3; stroke-linecap: square"/>
   </g>
   <g id="line2d_21">
    <g clip-path="url(#p3d0140e93a)">
     <use xlink:href="#meaac1a574a" x="305.596648" y="247.732969" style="stroke: #000000"/>
    </g>
   </g>
   <g id="line2d_22">
    <g clip-path="url(#p3d0140e93a)">
     <use xlink:href="#meaac1a574a" x="817.393182" y="289.623529" style="stroke: #000000"/>
    </g>
   </g>
   <g id="line2d_23">
    <path d="M 365.730222 277.466919 
L 367.39395 277.439398 
L 369.057678 277.298899 
L 370.721406 276.987751 
L 372.385133 276.851196 
L 374.738136 276.833842 
L 376.401864 276.927624 
L 378.754866 277.29627 
L 380.418594 277.282772 
L 382.082322 277.369368 
L 384.435324 277.293991 
L 386.099052 276.866972 
L 387.76278 277.044371 
L 389.426508 276.741198 
L 391.090236 276.58431 
L 392.753964 276.359056 
L 395.106966 276.312865 
L 396.770694 276.317949 
L 399.123696 276.045979 
L 401.476699 275.964467 
L 403.829701 275.959208 
L 406.182703 275.456112 
L 408.535706 274.26735 
L 410.888708 270.959098 
L 413.24171 270.662937 
L 415.594713 273.179645 
" clip-path="url(#p3d0140e93a)" style="fill: none; stroke: #000000; stroke-width: 3; stroke-linecap: square"/>
   </g>
   <g id="line2d_24">
    <g clip-path="url(#p3d0140e93a)">
     <use xlink:href="#meaac1a574a" x="364.066494" y="277.566048" style="stroke: #000000"/>
    </g>
   </g>
   <g id="line2d_25">
    <g clip-path="url(#p3d0140e93a)">
     <use xlink:href="#meaac1a574a" x="817.393182" y="289.623529" style="stroke: #000000"/>
    </g>
   </g>
   <g id="line2d_26">
    <path d="M 314.604562 249.440691 
L 316.957565 249.720549 
L 318.621293 249.930991 
L 320.285021 250.093226 
L 321.948748 250.143711 
L 324.301751 250.514197 
L 325.965479 250.711666 
L 327.629207 250.773546 
L 329.292935 250.782924 
L 330.956662 251.068129 
" clip-path="url(#p3d0140e93a)" style="fill: none; stroke: #000000; stroke-width: 3; stroke-linecap: square"/>
   </g>
   <g id="line2d_27">
    <g clip-path="url(#p3d0140e93a)">
     <use xlink:href="#meaac1a574a" x="312.940834" y="249.067401" style="stroke: #000000"/>
    </g>
   </g>
   <g id="line2d_28">
    <g clip-path="url(#p3d0140e93a)">
     <use xlink:href="#meaac1a574a" x="817.393182" y="289.623529" style="stroke: #000000"/>
    </g>
   </g>
   <g id="line2d_29">
    <path d="M 283.562362 229.511157 
L 285.226282 231.041656 
L 286.890202 232.542268 
L 289.243204 234.98097 
L 291.596207 235.986198 
L 293.260127 236.906671 
L 294.924047 237.898314 
L 296.587966 238.788812 
L 298.251886 240.185561 
L 299.915806 241.580821 
L 301.579726 242.863366 
L 303.243646 245.998777 
" clip-path="url(#p3d0140e93a)" style="fill: none; stroke: #000000; stroke-width: 3; stroke-linecap: square"/>
   </g>
   <g id="line2d_30">
    <g clip-path="url(#p3d0140e93a)">
     <use xlink:href="#meaac1a574a" x="281.898442" y="227.782925" style="stroke: #000000"/>
    </g>
   </g>
   <g id="line2d_31">
    <g clip-path="url(#p3d0140e93a)">
     <use xlink:href="#meaac1a574a" x="817.393182" y="289.623529" style="stroke: #000000"/>
    </g>
   </g>
   <g id="line2d_32">
    <path d="M 125.072597 55.282277 
L 126.736516 58.466508 
L 129.089519 64.015466 
L 130.753439 66.629463 
" clip-path="url(#p3d0140e93a)" style="fill: none; stroke: #000000; stroke-width: 3; stroke-linecap: square"/>
   </g>
   <g id="line2d_33">
    <g clip-path="url(#p3d0140e93a)">
     <use xlink:href="#meaac1a574a" x="123.408677" y="51.877701" style="stroke: #000000"/>
    </g>
   </g>
   <g id="line2d_34">
    <g clip-path="url(#p3d0140e93a)">
     <use xlink:href="#meaac1a574a" x="817.393182" y="289.623529" style="stroke: #000000"/>
    </g>
   </g>
   <g id="line2d_35">
    <path d="M 334.28431 250.667317 
L 336.637313 249.983404 
L 338.990315 249.889534 
L 340.654235 250.397188 
L 342.318155 251.63661 
L 343.982075 254.92032 
L 346.335077 257.476558 
L 348.688079 259.764243 
L 350.351999 261.033641 
L 352.705002 262.542491 
L 354.368921 264.581521 
L 356.721924 265.165428 
L 358.385652 266.004126 
L 360.738654 265.711208 
L 362.402574 267.609476 
L 364.066494 270.886701 
L 366.419496 272.252949 
L 368.083224 271.632493 
L 370.436226 272.064945 
L 372.789229 272.494243 
L 374.452957 273.158172 
L 376.116685 272.867708 
L 378.469687 271.620748 
L 380.822689 272.050133 
L 382.486417 273.10348 
L 384.150145 273.857511 
L 386.503147 274.689197 
L 388.166875 274.759227 
L 390.519878 275.694513 
L 392.183606 276.460902 
L 394.536608 276.402178 
L 396.200336 277.345878 
L 397.864064 276.91623 
L 400.217066 277.872201 
L 401.880794 277.186886 
L 404.233796 278.050476 
L 405.897524 277.942406 
L 408.250527 278.089566 
L 409.914255 278.605284 
L 412.267257 278.509836 
L 413.930985 278.904863 
L 416.283987 279.317332 
" clip-path="url(#p3d0140e93a)" style="fill: none; stroke: #000000; stroke-width: 3; stroke-linecap: square"/>
   </g>
   <g id="line2d_36">
    <g clip-path="url(#p3d0140e93a)">
     <use xlink:href="#meaac1a574a" x="332.62039" y="252.430608" style="stroke: #000000"/>
    </g>
   </g>
   <g id="line2d_37">
    <g clip-path="url(#p3d0140e93a)">
     <use xlink:href="#meaac1a574a" x="817.393182" y="289.623529" style="stroke: #000000"/>
    </g>
   </g>
   <g id="line2d_38">
    <path d="M 134.770361 72.764257 
L 137.123363 74.964733 
L 138.787283 78.430751 
L 141.140285 81.556959 
L 143.493288 85.257258 
L 145.157208 90.498924 
L 146.821128 94.58496 
L 148.485047 96.896923 
L 150.83805 99.14359 
L 152.50197 102.579281 
L 154.16589 104.524616 
L 155.82981 105.969922 
L 157.493729 107.390161 
L 159.157649 109.367311 
L 161.510652 112.988552 
L 163.174572 115.403326 
L 164.838491 118.170093 
L 166.502411 120.807141 
L 168.166331 123.709235 
L 169.830251 126.743238 
L 171.494171 129.199469 
L 173.158091 130.673786 
L 175.511093 132.983647 
L 177.175013 135.442332 
L 178.838933 137.270745 
L 180.502853 139.283042 
L 182.166773 141.680638 
L 183.830693 144.695709 
L 185.494613 147.109694 
L 187.158532 149.495808 
L 188.822452 151.701981 
L 190.486372 153.874323 
L 192.150292 155.37695 
L 193.814212 156.964683 
L 196.167214 159.15394 
L 197.831134 162.110463 
L 199.495054 164.399726 
L 201.158974 165.399871 
L 203.511976 166.161703 
L 205.175896 168.756592 
L 206.839816 172.188252 
L 209.192819 174.965097 
L 211.545821 177.16943 
L 213.898823 179.229671 
L 216.251826 180.915043 
L 218.604828 183.239803 
L 220.95783 184.882053 
L 223.310833 186.520972 
L 225.663835 188.212392 
L 228.016837 189.82379 
L 230.36984 192.191234 
L 232.033567 193.785366 
L 234.38657 196.435824 
L 236.050298 197.907249 
L 238.4033 199.802712 
L 240.756302 201.912561 
L 242.42003 203.859298 
L 244.083758 205.558518 
L 246.436761 208.595502 
L 248.789763 209.723699 
L 250.453683 211.481731 
L 252.806685 212.810817 
L 254.470605 214.038144 
L 256.134525 215.625263 
L 257.798445 216.808328 
L 260.151447 218.55558 
L 262.504449 219.882474 
L 264.168369 221.623502 
L 266.521372 224.167995 
L 268.874374 225.420739 
L 270.538294 226.388893 
L 272.891296 227.800192 
L 275.244299 229.099652 
L 276.908219 230.572918 
L 279.261221 232.343922 
L 280.925141 233.453275 
L 282.589061 234.435277 
L 284.252981 235.866998 
L 285.9169 240.082751 
L 287.58082 243.112898 
L 289.933823 243.77411 
L 291.597551 244.229088 
L 293.261278 244.639541 
L 294.925006 245.14027 
L 296.588734 245.675358 
L 298.252462 246.04374 
L 300.605465 246.757453 
L 302.269193 247.046339 
L 303.93292 247.450306 
" clip-path="url(#p3d0140e93a)" style="fill: none; stroke: #000000; stroke-width: 3; stroke-linecap: square"/>
   </g>
   <g id="line2d_39">
    <g clip-path="url(#p3d0140e93a)">
     <use xlink:href="#meaac1a574a" x="132.417359" y="68.35042" style="stroke: #000000"/>
    </g>
   </g>
   <g id="line2d_40">
    <g clip-path="url(#p3d0140e93a)">
     <use xlink:href="#meaac1a574a" x="817.393182" y="289.623529" style="stroke: #000000"/>
    </g>
   </g>
   <g id="line2d_41">
    <path d="M 102.920738 26.194814 
L 104.584658 28.26566 
L 106.248578 30.469029 
L 108.60158 33.132283 
L 110.2655 35.283414 
L 111.92942 37.058712 
L 114.282422 40.148459 
L 116.635425 43.316388 
L 118.299345 46.146786 
L 120.652347 49.833237 
L 123.005349 53.416614 
L 125.358352 56.794108 
L 127.711354 61.352738 
L 130.064356 66.109977 
" clip-path="url(#p3d0140e93a)" style="fill: none; stroke: #000000; stroke-width: 3; stroke-linecap: square"/>
   </g>
   <g id="line2d_42">
    <g clip-path="url(#p3d0140e93a)">
     <use xlink:href="#meaac1a574a" x="101.256818" y="24.110909" style="stroke: #000000"/>
    </g>
   </g>
   <g id="line2d_43">
    <g clip-path="url(#p3d0140e93a)">
     <use xlink:href="#meaac1a574a" x="817.393182" y="289.623529" style="stroke: #000000"/>
    </g>
   </g>
   <g id="line2d_44">
    <path d="M 211.904873 234.244381 
L 213.568601 234.335447 
L 215.232329 234.417046 
L 216.896057 234.553163 
L 218.559785 234.630731 
L 220.223513 234.661758 
L 221.887241 234.628101 
L 223.550969 234.774297 
L 225.214697 234.857387 
L 226.878425 234.903928 
L 228.542152 234.901035 
L 230.20588 234.941967 
L 231.869608 235.044865 
L 233.533336 235.073438 
L 235.197064 235.326914 
L 236.860792 235.481612 
L 238.52452 235.645688 
L 240.188248 235.933084 
L 241.851976 236.0841 
L 243.515704 236.359138 
L 245.179432 236.572033 
L 246.84316 236.786068 
L 249.196162 237.2506 
L 250.85989 237.726262 
L 252.523618 238.179312 
L 254.187346 238.572148 
L 255.851074 239.03852 
L 257.514802 239.524525 
L 259.178529 239.886508 
L 260.842257 240.144455 
L 262.505985 240.362522 
L 264.858988 240.821093 
L 266.522716 241.457501 
L 268.186443 242.028962 
L 269.850171 242.508393 
L 271.513899 242.8539 
L 273.177627 243.145766 
L 275.53063 243.449201 
L 277.194357 244.138723 
L 278.858085 244.648831 
L 280.521813 244.96778 
L 282.185541 245.130629 
L 283.849269 245.183831 
L 286.202271 245.661071 
L 287.865999 246.238755 
L 289.529727 246.298356 
L 291.193455 246.449986 
L 293.546458 246.68155 
L 295.210186 247.270278 
L 296.873913 247.416649 
L 298.537641 247.533133 
L 300.890644 248.111693 
L 302.554372 248.384189 
L 304.2181 248.487175 
L 306.571102 248.475605 
L 308.23483 248.839167 
L 309.898558 249.109735 
L 311.562286 249.268026 
L 313.226014 249.284065 
L 315.579016 249.623261 
L 317.242744 249.821169 
L 319.595746 249.861837 
L 321.259474 250.04949 
L 322.923202 249.962982 
L 324.58693 250.091824 
L 326.939932 250.345213 
L 328.60366 250.414629 
L 330.956662 250.962601 
" clip-path="url(#p3d0140e93a)" style="fill: none; stroke: #000000; stroke-width: 3; stroke-linecap: square"/>
   </g>
   <g id="line2d_45">
    <g clip-path="url(#p3d0140e93a)">
     <use xlink:href="#meaac1a574a" x="210.241145" y="234.22466" style="stroke: #000000"/>
    </g>
   </g>
   <g id="line2d_46">
    <g clip-path="url(#p3d0140e93a)">
     <use xlink:href="#meaac1a574a" x="817.393182" y="289.623529" style="stroke: #000000"/>
    </g>
   </g>
   <g id="patch_3">
    <path d="M 65.45 303.64 
L 65.45 10.8 
" style="fill: none; stroke: #000000; stroke-width: 0.8; stroke-linejoin: miter; stroke-linecap: square"/>
   </g>
   <g id="patch_4">
    <path d="M 853.2 303.64 
L 853.2 10.8 
" style="fill: none; stroke: #000000; stroke-width: 0.8; stroke-linejoin: miter; stroke-linecap: square"/>
   </g>
   <g id="patch_5">
    <path d="M 65.45 303.64 
L 853.2 303.64 
" style="fill: none; stroke: #000000; stroke-width: 0.8; stroke-linejoin: miter; stroke-linecap: square"/>
   </g>
   <g id="patch_6">
    <path d="M 65.45 10.8 
L 853.2 10.8 
" style="fill: none; stroke: #000000; stroke-width: 0.8; stroke-linejoin: miter; stroke-linecap: square"/>
   </g>
  </g>
 </g>
 <defs>
  <clipPath id="p3d0140e93a">
   <rect x="65.45" y="10.8" width="787.75" height="292.84"/>
  </clipPath>
 </defs>
</svg>
